<?xml version="1.0" encoding="UTF-8" standalone="no"?>
<!-- Created with Inkscape (http://www.inkscape.org/) -->

<svg
   xmlns:dc="http://purl.org/dc/elements/1.1/"
   xmlns:cc="http://creativecommons.org/ns#"
   xmlns:rdf="http://www.w3.org/1999/02/22-rdf-syntax-ns#"
   xmlns:svg="http://www.w3.org/2000/svg"
   xmlns="http://www.w3.org/2000/svg"
   xmlns:sodipodi="http://sodipodi.sourceforge.net/DTD/sodipodi-0.dtd"
   xmlns:inkscape="http://www.inkscape.org/namespaces/inkscape"
   width="1000"
   height="895.71503"
   viewBox="0 0 1000 895.71508"
   id="svg9095"
   version="1.1"
   inkscape:version="0.91 r13725"
   sodipodi:docname="My Little Pony 2016.svg">
  <defs
     id="defs9097" />
  <sodipodi:namedview
     id="base"
     pagecolor="#ffffff"
     bordercolor="#666666"
     borderopacity="1.0"
     inkscape:pageopacity="0.0"
     inkscape:pageshadow="2"
     inkscape:zoom="0.25"
     inkscape:cx="861.9228"
     inkscape:cy="728.86207"
     inkscape:document-units="px"
     inkscape:current-layer="layer1"
     showgrid="false"
     units="px"
     inkscape:window-width="1366"
     inkscape:window-height="705"
     inkscape:window-x="-8"
     inkscape:window-y="-8"
     inkscape:window-maximized="1" />
  <metadata
     id="metadata9100">
    <rdf:RDF>
      <cc:Work
         rdf:about="">
        <dc:format>image/svg+xml</dc:format>
        <dc:type
           rdf:resource="http://purl.org/dc/dcmitype/StillImage" />
        <dc:title></dc:title>
      </cc:Work>
    </rdf:RDF>
  </metadata>
  <g
     inkscape:label="Layer 1"
     inkscape:groupmode="layer"
     id="layer1"
     transform="translate(0,-156.64732)">
    <g
       id="g6092"
       transform="matrix(15.765182,0,0,-15.765182,980.38881,426.94172)">
      <path
         d="m 0,0 c -1.05,1.438 -2.667,2.355 -4.434,2.519 -0.194,0.018 -0.392,0.027 -0.59,0.027 -0.18,0 -0.356,-0.007 -0.526,-0.022 L -5.569,2.522 c -1.371,3.416 -3.532,6.483 -6.35,8.923 -4.244,3.675 -9.681,5.7 -15.31,5.7 -1.051,0 -2.117,-0.071 -3.166,-0.211 -6.293,-0.837 -11.861,-4.06 -15.678,-9.075 -0.111,-0.144 -0.212,-0.292 -0.319,-0.439 -1.915,-0.323 -3.637,-1.156 -4.992,-2.418 -1.76,-0.241 -3.318,-0.938 -4.634,-2.072 -0.479,-0.412 -0.914,-0.881 -1.293,-1.395 -0.901,-1.148 -1.237,-2.266 -1.366,-2.692 -0.086,-0.288 -0.156,-0.595 -0.214,-0.935 -0.368,-1.886 -0.104,-3.866 0.747,-5.576 0.093,-0.189 0.193,-0.374 0.301,-0.555 -0.504,-0.319 -1.046,-0.673 -1.591,-1.071 -3.035,-2.218 -3.634,-6.183 -1.43,-9.436 0.325,-0.499 4.428,-6.954 6.599,-10.434 l 0.019,-0.029 c 0.137,-0.227 0.464,-0.764 1.029,-1.303 1.051,-1.318 2.529,-2.123 4.167,-2.275 l 0.075,-0.171 c 1.703,-3.789 5.313,-6.284 9.659,-6.675 0.277,-0.024 0.609,-0.05 0.977,-0.053 l 0.214,-10e-4 c 4.065,0 7.158,1.973 8.588,3.677 1.057,1.222 1.785,2.748 2.112,4.372 1.846,-0.419 4.057,-0.887 5.87,-1.054 0.66,-0.06 1.317,-0.09 1.952,-0.09 4.751,0 8.8,1.672 12.377,5.116 2.796,2.692 4.973,7.198 6.658,13.774 1.096,4.278 1.61,8.052 1.723,8.942 C 1.444,-3.178 1.021,-1.38 0,0"
         style="fill:#ffffff;fill-opacity:1;fill-rule:nonzero;stroke:none"
         id="path6094"
         inkscape:connector-curvature="0" />
    </g>
    <g
       id="g6096"
       transform="matrix(15.765182,0,0,-15.765182,950.4192,448.82379)">
      <path
         d="M 0,0 C -0.652,0.892 -1.655,1.462 -2.754,1.563 -2.88,1.575 -3.005,1.58 -3.124,1.58 -3.249,1.58 -3.365,1.575 -3.45,1.566 L -4.08,1.523 c -0.1,0 -0.203,-0.004 -0.291,-0.013 L -5.287,1.445 c -1.153,3.709 -3.311,7.044 -6.272,9.609 -3.816,3.304 -8.706,5.125 -13.769,5.125 -0.948,0 -1.909,-0.065 -2.856,-0.191 -5.667,-0.755 -10.68,-3.654 -14.116,-8.166 -0.307,-0.401 -0.591,-0.814 -0.865,-1.233 -0.124,-0.001 -0.249,-0.003 -0.375,-0.015 l -0.193,-0.025 c -1.871,-0.23 -3.512,-1.085 -4.669,-2.424 -0.121,-0.004 -0.243,-0.01 -0.365,-0.02 l -0.148,-0.016 c -1.405,-0.146 -2.639,-0.671 -3.668,-1.557 -0.354,-0.304 -0.674,-0.652 -0.953,-1.033 -0.644,-0.811 -0.883,-1.605 -0.986,-1.946 -0.061,-0.203 -0.11,-0.42 -0.152,-0.679 -0.279,-1.389 -0.086,-2.848 0.541,-4.109 0.404,-0.817 1.003,-1.556 1.786,-2.208 -0.482,-0.241 -0.965,-0.516 -1.442,-0.818 l -0.463,-0.291 c -0.615,-0.387 -1.253,-0.787 -1.892,-1.255 -2.008,-1.467 -2.361,-4.032 -0.864,-6.226 0.223,-0.335 4.415,-6.927 6.645,-10.504 l 0.028,-0.044 c 0.116,-0.192 0.351,-0.576 0.758,-0.927 0.733,-0.996 1.79,-1.544 2.99,-1.545 0.186,0 0.377,0.013 0.589,0.043 0.139,0.021 0.277,0.051 0.412,0.087 0.088,-0.272 0.188,-0.534 0.299,-0.782 l 0.072,-0.146 0.003,-0.004 c 0.091,-0.272 0.186,-0.512 0.285,-0.733 1.35,-3.002 4.235,-4.982 7.72,-5.296 0.244,-0.021 0.51,-0.041 0.786,-0.042 l 0.197,-10e-4 c 3.274,0 5.71,1.538 6.787,2.838 1.149,1.317 1.786,3.113 1.75,4.933 -0.006,0.287 -0.029,0.569 -0.07,0.844 0.452,-0.097 0.919,-0.205 1.407,-0.318 l 0.304,-0.07 c 1.938,-0.446 4.593,-1.056 6.605,-1.244 0.589,-0.053 1.173,-0.08 1.738,-0.08 4.17,0 7.584,1.417 10.745,4.458 2.438,2.348 4.459,6.608 6.011,12.662 1.083,4.23 1.578,7.941 1.673,8.702 C 0.925,-2.059 0.659,-0.891 0,0"
         style="fill:#351858;fill-opacity:1;fill-rule:nonzero;stroke:none"
         id="path6098"
         inkscape:connector-curvature="0" />
    </g>
    <g
       id="g6100"
       transform="matrix(15.765182,0,0,-15.765182,343.90112,398.23395)">
      <path
         d="m 0,0 c 2.431,4.567 6.817,7.958 12.129,8.756 8.084,1.214 15.307,-4.023 17.316,-11.907 0.225,-0.107 0.438,-0.24 0.634,-0.392 0.236,0.277 0.558,0.508 0.986,0.659 C 28.579,5.872 20.012,11.7 10.599,10.446 4.947,9.693 0.224,6.542 -2.666,2.178 -1.586,1.763 -0.642,1.001 0,0"
         style="fill:#822b99;fill-opacity:1;fill-rule:nonzero;stroke:none"
         id="path6102"
         inkscape:connector-curvature="0" />
    </g>
    <g
       id="g6104"
       transform="matrix(15.765182,0,0,-15.765182,442.27586,413.98274)">
      <path
         d="m 0,0 0.165,-0.193 c 0.099,0.026 0.198,0.045 0.303,0.055 L 3.129,0.111 C 4.402,1.322 6.063,2.12 7.925,2.285 9.779,2.447 11.521,1.947 12.954,0.983 l 1.719,0.079 0.083,0.002 0.121,-0.007 C 12.705,3.183 9.71,4.388 6.463,4.103 3.607,3.852 1.102,2.504 -0.698,0.493 -0.44,0.376 -0.203,0.211 0,0"
         style="fill:#f140a9;fill-opacity:1;fill-rule:nonzero;stroke:none"
         id="path6106"
         inkscape:connector-curvature="0" />
    </g>
    <g
       id="g6108"
       transform="matrix(15.765182,0,0,-15.765182,541.36003,286.06342)">
      <path
         d="m 0,0 c -5.172,-0.663 -9.436,-3.982 -11.67,-8.453 l 0.458,0.027 0,-10e-4 0.114,0.005 c 0.511,0 0.976,-0.222 1.31,-0.569 1.963,3.596 5.555,6.147 9.842,6.523 5.505,0.484 10.371,-2.798 12.448,-7.709 l 1.666,0.148 c 0.126,0.018 0.254,0.027 0.381,0.027 l 0.172,-0.013 0.059,0.011 0.28,0.025 0.132,0.015 C 13.148,-3.451 7.026,0.898 0,0"
         style="fill:#ec058e;fill-opacity:1;fill-rule:nonzero;stroke:none"
         id="path6110"
         inkscape:connector-curvature="0" />
    </g>
    <g
       id="g6112"
       transform="matrix(15.765182,0,0,-15.765182,546.01076,769.94415)">
      <path
         d="M 0,0 -0.005,-0.001 C -0.113,-0.012 0.038,-0.007 0,0"
         style="fill:#1ab4cf;fill-opacity:1;fill-rule:nonzero;stroke:none"
         id="path6114"
         inkscape:connector-curvature="0" />
    </g>
    <g
       id="g6116"
       transform="matrix(15.765182,0,0,-15.765182,684.53941,512.48359)">
      <path
         d="m 0,0 0.116,0 c 0.105,0 0.216,0.004 0.325,-0.002 0.578,-0.042 0.886,-0.406 0.995,-1.177 l 1.901,-11.56 c 0.074,-0.535 -0.394,-1.064 -0.982,-1.181 l -0.964,-0.186 c -0.163,-0.033 -0.341,-0.042 -0.529,-0.029 -0.527,0.04 -1.055,0.246 -1.39,0.536 l -4.894,3.642 -0.007,0.009 c -0.108,0.09 -0.176,0.116 -0.202,0.127 -0.011,-0.031 -0.029,-0.099 -0.018,-0.23 l 0.606,-3.511 0,-0.007 c 0.068,-0.673 -0.422,-1.296 -1.09,-1.397 l -2.833,-0.673 -0.01,0 -0.259,-0.01 c -0.491,0.036 -0.901,0.359 -1.064,0.802 l 0.011,-0.085 c 0.098,-0.754 0.715,-1.342 1.475,-1.395 l 0.026,-0.004 0.011,0.004 3.155,0.687 c 0.854,0.134 1.48,0.934 1.396,1.802 l -0.001,0.014 -0.503,2.912 4.413,-3.286 c 0.401,-0.342 0.997,-0.571 1.599,-0.616 0.222,-0.018 0.436,-0.004 0.632,0.036 l 0.961,0.185 c 0.801,0.159 1.371,0.876 1.271,1.592 L 2.248,-1.43 c -0.049,0.356 -0.207,1.403 -1.332,1.485 -0.126,0.007 -0.25,0.007 -0.359,0 l -0.123,0 -1.847,-0.141 c -0.128,-0.001 -0.25,-0.021 -0.37,-0.05"
         style="fill:#1ab4cf;fill-opacity:1;fill-rule:nonzero;stroke:none"
         id="path6118"
         inkscape:connector-curvature="0" />
    </g>
    <g
       id="g6120"
       transform="matrix(15.765182,0,0,-15.765182,773.81764,468.78251)">
      <path
         d="M 0,0 0.156,0.018 -2.242,-0.192 -2.272,-0.2"
         style="fill:#1ab4cf;fill-opacity:1;fill-rule:nonzero;stroke:none"
         id="path6122"
         inkscape:connector-curvature="0" />
    </g>
    <g
       id="g6124"
       transform="matrix(15.765182,0,0,-15.765182,779.16203,468.54666)">
      <path
         d="m 0,0 c 0.568,-0.051 1.081,-0.496 1.212,-1.057 l 1.751,-7.027 c 0.041,0.31 0.073,0.662 0.095,0.905 0.015,0.158 0.028,0.306 0.039,0.439 0.04,0.38 0.079,0.77 0.116,1.161 l -1.066,4.27 C 1.976,-0.588 1.316,-0.016 0.585,0.052 0.445,0.065 0.3,0.057 0.165,0.033 L -0.167,0.005 0,0"
         style="fill:#1ab4cf;fill-opacity:1;fill-rule:nonzero;stroke:none"
         id="path6126"
         inkscape:connector-curvature="0" />
    </g>
    <g
       id="g6128"
       transform="matrix(15.765182,0,0,-15.765182,548.88002,524.14983)">
      <path
         d="m 0,0 0.22,0 c 0.589,-0.045 1.253,-0.393 1.573,-0.835 l 4.555,-5.873 0.123,-0.137 -0.009,0.14 -0.119,0.87 -3.801,4.905 C 2.153,-0.398 1.393,0.004 0.696,0.056 0.604,0.064 0.515,0.065 0.428,0.059 l -0.015,0 -2.23,-0.309 -0.019,-0.003"
         style="fill:#1ab4cf;fill-opacity:1;fill-rule:nonzero;stroke:none"
         id="path6130"
         inkscape:connector-curvature="0" />
    </g>
    <g
       id="g6132"
       transform="matrix(15.765182,0,0,-15.765182,344.94162,543.82477)">
      <path
         d="M 0,0 C 0.944,0.333 1.844,0.591 3.176,0.773 3.383,0.8 3.622,0.808 3.878,0.79 5.054,0.702 6.532,0.111 7.169,-1.02 c 0.73,-1.26 1.29,-2.465 1.843,-4.57 0.705,-2.66 -0.513,-4.536 -3.524,-5.413 -0.59,-0.178 -2.122,-0.566 -3.67,-0.452 -1.626,0.116 -2.735,0.769 -3.196,1.88 -0.302,0.719 -0.589,1.69 -0.793,2.73 0.209,-1.167 0.525,-2.268 0.859,-3.066 0.526,-1.245 1.736,-1.971 3.513,-2.103 1.608,-0.117 3.191,0.287 3.8,0.464 3.189,0.935 4.526,3.008 3.771,5.839 -0.559,2.144 -1.13,3.372 -1.873,4.657 C 7.191,0.193 5.585,0.843 4.311,0.938 4.029,0.957 3.765,0.952 3.532,0.92 2.167,0.732 1.247,0.468 0.279,0.126 0.175,0.089 0.031,0.031 -0.136,-0.053 L 0,0"
         style="fill:#1ab4cf;fill-opacity:1;fill-rule:nonzero;stroke:none"
         id="path6134"
         inkscape:connector-curvature="0" />
    </g>
    <g
       id="g6136"
       transform="matrix(15.765182,0,0,-15.765182,433.82572,843.31657)">
      <path
         d="m 0,0 c -0.226,0.02 -0.464,0.02 -0.712,0 -0.112,-0.008 -0.222,-0.022 -0.329,-0.043 0.157,0.006 0.309,0.005 0.455,-0.007 C 1.49,-0.241 1.697,-2.242 1.708,-2.851 1.732,-3.986 1.339,-5.093 0.63,-5.886 0.2,-6.428 -1.483,-7.794 -4.162,-7.742 c -0.195,0.006 -0.388,0.013 -0.578,0.033 -2.45,0.226 -4.468,1.585 -5.396,3.641 l -0.015,0.038 c 0.062,-0.186 0.13,-0.368 0.209,-0.539 0.982,-2.191 3.122,-3.639 5.718,-3.872 0.2,-0.018 0.401,-0.034 0.604,-0.034 2.723,-0.055 4.525,1.273 5.106,1.989 0.768,0.871 1.191,2.074 1.167,3.301 C 2.622,-1.761 1.909,-0.176 0,0"
         style="fill:#1ab4cf;fill-opacity:1;fill-rule:nonzero;stroke:none"
         id="path6138"
         inkscape:connector-curvature="0" />
    </g>
    <g
       id="g6140"
       transform="matrix(15.765182,0,0,-15.765182,919.48792,471.43106)">
      <path
         d="m 0,0 c -0.242,0.332 -0.608,0.54 -1.015,0.578 -0.1,0.009 -0.198,0.009 -0.278,0 L -3.369,0.433 C -3.512,0.43 -3.708,0.425 -3.92,0.381 l 0.018,0 2.086,0.148 0.212,0 c 0.299,-0.026 0.561,-0.176 0.738,-0.422 0.221,-0.299 0.299,-0.698 0.217,-1.099 -0.095,-0.765 -1.878,-14.969 -6.854,-19.763 -2.808,-2.703 -5.964,-3.992 -10.273,-3.599 -1.92,0.177 -4.715,0.834 -6.527,1.253 -1.629,0.372 -3.166,0.726 -4.575,0.855 -2.386,0.221 -3.985,-0.259 -5.177,-1.55 -0.38,-0.412 -0.847,-1.084 -0.904,-1.966 -0.078,-1.073 0.392,-1.975 1.287,-2.469 0.164,-0.088 0.347,-0.164 0.557,-0.227 0.141,-0.031 0.281,-0.055 0.408,-0.067 0.548,-0.05 0.9,0.091 1.122,0.271 -0.151,-0.011 -0.302,-0.008 -0.446,0.007 -0.502,0.045 -1.722,0.299 -2.191,1.672 -0.189,0.549 -0.061,1.302 0.314,1.872 0.357,0.539 0.9,0.891 1.554,1.019 0.999,0.64 2.273,0.861 3.989,0.705 1.383,-0.127 2.908,-0.477 4.523,-0.851 1.827,-0.42 4.634,-1.079 6.583,-1.261 4.429,-0.403 7.679,0.918 10.578,3.708 5.054,4.868 6.871,19.18 6.967,19.983 C 0.388,-0.89 0.283,-0.382 0,0"
         style="fill:#1ab4cf;fill-opacity:1;fill-rule:nonzero;stroke:none"
         id="path6142"
         inkscape:connector-curvature="0" />
    </g>
    <g
       id="g6144"
       transform="matrix(15.765182,0,0,-15.765182,239.26761,666.41483)">
      <path
         d="m 0,0 -0.019,-0.005 c -0.093,-0.04 -0.178,-0.083 -0.258,-0.134 -0.409,-0.258 -0.538,-0.622 -0.571,-0.887 L -0.87,-1.214 -1.06,-1.227 c -0.179,-0.016 -0.349,-0.048 -0.498,-0.106 l -0.214,-0.108 c -0.13,-0.082 -0.235,-0.185 -0.317,-0.309 -0.153,-0.231 -0.161,-0.459 -0.161,-0.57 -0.008,-0.252 0.088,-0.506 0.26,-0.698 0.611,-0.683 2.357,-0.502 2.877,-0.429 l 0.233,0.029 0.043,0.182 c -0.906,-0.1 -1.999,-0.063 -2.369,0.352 -0.115,0.131 -0.178,0.299 -0.175,0.47 0.001,0.09 0.004,0.241 0.106,0.392 l 0.215,0.208 0.161,0.082 c 0.114,0.044 0.252,0.071 0.401,0.082 l 0.456,0.037 0.062,0.456 c 0.038,0.279 0.176,0.496 0.418,0.647 l 0.203,0.107 0.016,0.006 c 0.166,0.063 0.358,0.035 0.521,-0.064 L 1.055,-0.283 C 0.776,0.026 0.355,0.138 0,0"
         style="fill:#1ab4cf;fill-opacity:1;fill-rule:nonzero;stroke:none"
         id="path6146"
         inkscape:connector-curvature="0" />
    </g>
    <g
       id="g6148"
       transform="matrix(15.765182,0,0,-15.765182,432.40685,611.11057)">
      <path
         d="m 0,0 -0.213,-0.01 -0.012,0 c -0.629,-0.138 -0.867,-0.528 -0.963,-0.833 l -0.056,-0.176 -0.228,0.02 c -0.167,0.01 -0.312,0.006 -0.444,-0.02 -0.233,-0.049 -0.431,-0.149 -0.573,-0.304 -0.19,-0.2 -0.231,-0.413 -0.25,-0.516 -0.047,-0.236 0,-0.493 0.131,-0.705 0.291,-0.462 1.155,-0.78 2.366,-0.869 0.113,-0.007 0.213,-0.011 0.297,-0.015 l 0.224,-0.007 0.065,0.151 -0.194,0.012 c -1.285,0.092 -1.934,0.429 -2.11,0.709 -0.087,0.145 -0.121,0.316 -0.089,0.471 0.016,0.085 0.041,0.227 0.165,0.351 0.098,0.103 0.232,0.174 0.399,0.208 0.101,0.021 0.219,0.025 0.352,0.016 l 0.492,-0.044 0.132,0.432 c 0.099,0.319 0.341,0.524 0.721,0.606 l 0.013,0.002 0.115,0.006 c 0.192,-0.014 0.372,-0.126 0.478,-0.3 l 0.064,-0.15 C 0.864,-0.766 0.817,-0.588 0.729,-0.449 0.57,-0.187 0.291,-0.019 0,0"
         style="fill:#1ab4cf;fill-opacity:1;fill-rule:nonzero;stroke:none"
         id="path6150"
         inkscape:connector-curvature="0" />
    </g>
    <g
       id="g6152"
       transform="matrix(15.765182,0,0,-15.765182,250.33477,779.00976)">
      <path
         d="m 0,0 -0.021,-0.017 c -0.144,0.224 -0.144,0.39 -0.06,0.494 0.1,0.125 0.668,0.258 1.58,0.834 0.927,0.587 1.576,1.161 1.927,1.713 0.629,0.977 1.711,3.669 -1.785,7.478 -2.285,2.491 -4.915,2.842 -8.414,0.836 3.157,1.673 5.706,1.394 7.767,-0.851 C 4.317,6.867 3.324,4.366 2.74,3.457 2.416,2.954 1.806,2.416 0.928,1.865 0.044,1.301 -0.79,0.927 -0.826,0.913 L -0.931,0.86 C -1.039,0.793 -1.102,0.706 -1.127,0.594 -1.166,0.403 -1.096,0.141 -0.926,-0.119 l 0.026,0.01 c 0.927,-1.383 1.206,-1.801 0.712,-2.442 l -1.687,-2.133 c -0.033,-0.05 -0.184,-0.253 -0.402,-0.39 -0.107,-0.069 -0.215,-0.11 -0.323,-0.126 -0.293,-0.039 -0.499,0.025 -0.656,0.135 0.209,-0.308 0.573,-0.701 1.303,-0.599 0.161,0.024 0.32,0.082 0.469,0.18 0.26,0.164 0.444,0.398 0.5,0.48 l 1.682,2.128 C 1.36,-2.027 0.962,-1.432 0,0"
         style="fill:#1ab4cf;fill-opacity:1;fill-rule:nonzero;stroke:none"
         id="path6154"
         inkscape:connector-curvature="0" />
    </g>
    <g
       id="g6156"
       transform="matrix(15.765182,0,0,-15.765182,379.98762,635.21617)">
      <path
         d="M 0,0 C 0.022,0.122 0.075,0.387 0.308,0.628 0.49,0.821 0.722,0.943 1.006,1 1.193,1.037 1.382,1.037 1.558,1.02 1.688,1.453 2.023,1.864 2.683,2.007 L 2.704,2.011 C 3.151,2.099 3.634,1.881 3.895,1.467 4.422,0.624 3.759,-1.04 3.544,-1.531 L 3.39,-1.878 3.013,-1.864 C 2.324,-1.839 0.676,-1.689 0.166,-0.87 0.006,-0.611 -0.055,-0.295 0,0 M 2.789,-4.686 C 4.844,-4.084 6.981,-2.721 6.141,0.435 5.608,2.473 5.032,3.625 4.329,4.948 3.399,6.683 1.627,6.754 0.591,6.613 -0.773,6.426 -1.674,6.156 -2.535,5.852 -3.493,5.509 -4.701,4.532 -4.813,2.605 -4.93,0.677 -4.403,-1.876 -3.763,-3.4 -2.814,-5.669 0.76,-5.281 2.789,-4.686"
         style="fill:#ffffff;fill-opacity:1;fill-rule:nonzero;stroke:none"
         id="path6158"
         inkscape:connector-curvature="0" />
    </g>
    <g
       id="g6160"
       transform="matrix(15.765182,0,0,-15.765182,518.75276,736.75907)">
      <path
         d="m 0,0 c 0.07,-0.537 0.565,-0.915 1.101,-0.843 l 2.831,0.672 c 0.536,0.077 0.935,0.579 0.881,1.115 L 4.21,4.455 C 4.156,4.993 4.446,5.142 4.851,4.786 L 9.744,1.144 C 10.149,0.785 10.916,0.58 11.447,0.688 l 0.973,0.187 c 0.532,0.103 0.84,0.494 0.771,0.854 l -1.898,11.593 c -0.151,1.051 -0.626,0.964 -1.172,0.959 L 8.26,14.139 C 7.715,14.133 7.336,13.689 7.405,13.152 l 0.82,-6.02 C 8.303,6.597 7.971,6.497 7.648,6.932 l -4.555,5.883 c -0.32,0.436 -1.028,0.763 -1.568,0.731 l -2.222,-0.31 c -0.54,-0.041 -0.928,-0.509 -0.86,-1.045"
         style="fill:#ffffff;fill-opacity:1;fill-rule:nonzero;stroke:none"
         id="path6162"
         inkscape:connector-curvature="0" />
    </g>
    <g
       id="g6164"
       transform="matrix(15.765182,0,0,-15.765182,884.5838,463.20163)">
      <path
         d="m 0,0 -2.091,-0.149 c -0.518,-0.008 -1.035,-0.029 -1.173,-0.92 0,0 -0.19,-3.135 -0.47,-5.771 -0.098,-0.962 -0.209,-3.004 -0.592,-1.705 l -1.832,7.352 c -0.129,0.548 -0.695,0.944 -1.246,0.838 l -2.726,-0.241 c -0.909,-0.14 -0.595,-1.166 -0.51,-1.403 1.538,-4.196 2.487,-6.673 3.552,-9.734 1.13,-3.241 0.874,-3.221 -0.194,-5.062 -3.043,-5.239 -9.221,-6.31 -17.692,-2.642 -4.38,1.875 -8.583,3.254 -12.233,-0.257 -2.43,-2.33 -2.626,-6.016 -1.689,-8.098 0.932,-2.064 3.039,-3.462 5.729,-3.515 2.565,-0.05 4.171,1.24 4.58,1.755 0.597,0.67 1.037,1.689 1.014,2.855 -0.023,0.881 -0.384,2.714 -2.646,2.533 -1.707,-0.136 -2.227,-1.753 -1.947,-2.575 0.627,-1.82 2.806,-1.594 3.014,-1.292 0,0 -0.34,-1.383 -2.238,-0.945 -0.214,0.068 -0.423,0.144 -0.622,0.254 -0.989,0.548 -1.511,1.541 -1.429,2.729 0.063,0.88 0.491,1.602 0.98,2.134 5.269,5.693 17.61,-5.572 26.561,3.049 C -0.908,-16 0.872,-1.202 0.872,-1.202 1.008,-0.557 0.641,0.069 0,0"
         style="fill:#ffffff;fill-opacity:1;fill-rule:nonzero;stroke:none"
         id="path6166"
         inkscape:connector-curvature="0" />
    </g>
    <g
       id="g6168"
       transform="matrix(15.765182,0,0,-15.765182,255.28503,716.18488)">
      <path
         d="M 0,0 -0.097,-0.385 -0.484,-0.437 C -1.189,-0.533 -2.898,-0.675 -3.567,0.071 -3.78,0.307 -3.898,0.62 -3.89,0.93 c 0.002,0.13 0.01,0.408 0.202,0.696 0.151,0.225 0.367,0.395 0.644,0.504 0.186,0.069 0.38,0.106 0.561,0.118 0.061,0.465 0.33,0.943 0.974,1.207 l 0.021,0.008 C -1.044,3.636 -0.516,3.495 -0.177,3.118 0.516,2.351 0.131,0.538 0,0 M 0.057,6.427 C -2.49,9.201 -5.487,8.49 -8.396,6.645 -9.157,6.164 -9.897,5.716 -10.617,5.191 c -1.116,-0.815 -0.887,-2.023 -0.277,-2.917 0.159,-0.235 4.417,-6.927 6.697,-10.583 0.187,-0.304 0.329,-0.588 0.817,-0.52 0.301,0.043 0.551,0.411 0.551,0.411 l 1.689,2.144 c 0.404,0.518 0.158,0.816 -0.897,2.392 l 0.147,-0.264 c -0.345,0.534 -0.387,1.156 0.212,1.407 0,0 2.637,1.174 3.455,2.449 0.832,1.303 1.124,3.618 -1.72,6.717"
         style="fill:#ffffff;fill-opacity:1;fill-rule:nonzero;stroke:none"
         id="path6170"
         inkscape:connector-curvature="0" />
    </g>
    <g
       id="g6172"
       transform="matrix(15.765182,0,0,-15.765182,284.49792,557.72966)">
      <path
         d="m 0,0 -0.484,-0.859 -0.983,0.134 c -2.049,0.28 -6.957,1.211 -8.229,3.773 -0.384,0.78 -0.464,1.698 -0.216,2.518 0.108,0.356 0.334,1.091 1.048,1.707 0.575,0.493 1.283,0.787 2.107,0.864 l 0.042,0.004 c 0.558,0.051 1.163,0.003 1.801,-0.143 0.571,1.531 1.865,2.513 3.62,2.714 l 0.048,0.006 C 0.077,10.833 1.361,10.075 1.976,8.831 3.285,6.2 0.793,1.409 0,0 m 2.662,8.887 c -0.708,1.435 -2.216,2.309 -3.749,2.176 L -1.144,11.052 C -2.844,10.858 -4.215,9.945 -4.933,8.539 -5.417,8.611 -5.885,8.627 -6.331,8.591 L -6.37,8.586 C -7.297,8.499 -8.102,8.165 -8.759,7.599 -9.591,6.882 -9.854,6.022 -9.966,5.653 c -0.285,-0.945 -0.196,-2.005 0.249,-2.901 1.31,-2.645 5.821,-3.629 8.394,-3.98 l 1.388,-0.19 0.686,1.218 c 1.028,1.82 3.271,6.348 1.911,9.087"
         style="fill:#1ab4cf;fill-opacity:1;fill-rule:nonzero;stroke:none"
         id="path6174"
         inkscape:connector-curvature="0" />
    </g>
    <g
       id="g6176"
       transform="matrix(15.765182,0,0,-15.765182,293.81514,455.00374)">
      <path
         d="m 0,0 c -0.05,-0.31 -0.097,-0.623 -0.147,-0.93 -0.049,-0.318 -0.102,-0.627 -0.15,-0.937 -0.046,-0.307 -0.093,-0.619 -0.145,-0.93 -0.059,-0.4 -0.237,-0.744 -0.528,-1.034 -0.287,-0.288 -0.609,-0.481 -0.958,-0.58 l -0.135,-0.032 -0.131,-0.021 c -0.145,-0.017 -0.287,-0.013 -0.431,0.013 -0.145,0.021 -0.279,0.068 -0.407,0.139 -0.125,0.071 -0.224,0.161 -0.299,0.265 -0.077,0.11 -0.137,0.237 -0.187,0.394 l -0.004,0.033 -0.012,0.035 -0.009,0.033 -0.005,0.039 c -0.013,0.148 0.019,0.287 0.094,0.409 0.073,0.122 0.174,0.205 0.296,0.25 l 0.064,0.018 0.065,0.013 c 0.167,0.013 0.312,-0.038 0.428,-0.156 0.118,-0.118 0.188,-0.258 0.206,-0.416 l 0.004,-0.013 0.004,-0.014 c 0.01,-0.112 -0.005,-0.231 -0.051,-0.338 -0.045,-0.112 -0.133,-0.2 -0.247,-0.271 l 0.031,-0.01 0.039,-0.006 0.034,-0.005 0.029,0.005 c 0.252,0.026 0.432,0.162 0.545,0.419 0.114,0.251 0.201,0.526 0.253,0.829 0.028,0.148 0.049,0.292 0.068,0.432 0.02,0.14 0.038,0.268 0.051,0.377 -0.091,-0.109 -0.203,-0.208 -0.33,-0.298 -0.133,-0.09 -0.268,-0.16 -0.417,-0.206 L -2.47,-2.52 -2.563,-2.534 c -0.115,-0.018 -0.234,0 -0.34,0.042 -0.115,0.042 -0.215,0.126 -0.309,0.252 -0.048,0.073 -0.092,0.157 -0.121,0.25 l -0.003,0.013 -0.111,-0.2 C -3.655,-2.51 -3.978,-2.705 -4.418,-2.755 l -0.1,-0.011 -0.11,-10e-4 c -0.113,0.007 -0.218,0.027 -0.327,0.062 -0.104,0.036 -0.198,0.104 -0.277,0.203 l -0.129,0.232 c -0.029,0.08 -0.047,0.166 -0.058,0.257 l -0.012,0.117 -0.001,0.117 c 0.004,0.095 0.009,0.194 0.023,0.292 0.014,0.097 0.032,0.19 0.048,0.281 l 0.017,0.092 0.032,0.163 0.014,0.078 0.01,0.087 0.005,0.135 -0.002,0.117 -0.037,0.112 -0.087,0.039 C -5.493,-0.396 -5.57,-0.451 -5.63,-0.555 -5.692,-0.656 -5.75,-0.766 -5.792,-0.883 l -0.055,-0.19 -0.038,-0.164 c -0.021,-0.138 -0.04,-0.273 -0.063,-0.411 -0.022,-0.14 -0.046,-0.276 -0.064,-0.409 -0.027,-0.141 -0.05,-0.283 -0.072,-0.42 -0.019,-0.14 -0.046,-0.278 -0.064,-0.411 L -7.54,-3.055 c 0.033,0.175 0.063,0.354 0.091,0.531 0.026,0.172 0.056,0.352 0.087,0.54 0.027,0.172 0.056,0.351 0.082,0.524 0.026,0.179 0.057,0.356 0.083,0.531 l 0.011,0.103 -0.006,0.081 -0.044,0.115 -0.093,0.021 -0.073,-0.019 -0.066,-0.049 -0.076,-0.073 -0.062,-0.099 c -0.058,-0.106 -0.118,-0.25 -0.179,-0.44 -0.058,-0.188 -0.121,-0.442 -0.173,-0.754 -0.034,-0.225 -0.067,-0.4 -0.088,-0.542 C -8.057,-2.7 -8.077,-2.807 -8.091,-2.916 -8.106,-3.023 -8.12,-3.09 -8.125,-3.127 l -1.315,-0.159 0.49,3.099 1.317,0.161 -0.035,-0.198 c 0.096,0.094 0.21,0.177 0.339,0.243 0.127,0.07 0.257,0.122 0.395,0.148 l 0.038,0.007 0.042,0.003 0.201,0.009 0.204,-0.038 c 0.102,-0.031 0.198,-0.078 0.286,-0.151 0.09,-0.072 0.16,-0.171 0.211,-0.299 0.118,0.198 0.26,0.359 0.423,0.479 0.164,0.113 0.338,0.185 0.527,0.206 L -4.788,0.388 -4.57,0.349 C -4.38,0.297 -4.229,0.195 -4.111,0.042 -4,-0.114 -3.933,-0.292 -3.904,-0.495 l 0.009,-0.21 c -0.024,-0.351 -0.141,-0.758 -0.123,-1.107 l 0.012,-0.032 0.025,-0.002 0.043,0.005 0.07,0.021 0.067,0.046 c 0.058,0.055 0.119,0.126 0.175,0.222 0.053,0.092 0.104,0.187 0.139,0.282 l 0.099,0.241 0.055,0.196 0.011,-0.005 0.013,0.083 c 0.029,0.143 0.044,0.287 0.068,0.432 0.018,0.149 0.041,0.297 0.064,0.436 0.02,0.143 0.046,0.29 0.066,0.429 l 1.343,0.162 C -1.799,0.537 -1.824,0.375 -1.847,0.211 -1.871,0.045 -1.9,-0.115 -1.928,-0.286 -1.954,-0.45 -1.983,-0.612 -2.005,-0.781 -2.03,-0.943 -2.056,-1.109 -2.08,-1.271 l -0.009,-0.046 c -0.005,-0.084 -0.01,-0.228 0.115,-0.222 l 0.044,0 c 0.131,0.015 0.248,0.147 0.339,0.402 0.096,0.246 0.172,0.52 0.224,0.809 0.049,0.234 0.082,0.458 0.11,0.667 0.023,0.205 0.044,0.352 0.06,0.434 L 0.142,0.932 C 0.098,0.625 0.048,0.31 0,0 M 0.72,2.5 C 0.171,3.609 -0.964,4.279 -2.102,4.17 l -0.033,-0.006 -0.011,0 C -4.224,3.922 -5.234,2.604 -5.581,1.289 -6.205,1.469 -6.97,1.605 -7.735,1.532 -8.479,1.462 -9.109,1.201 -9.623,0.758 c -0.628,-0.537 -0.824,-1.182 -0.924,-1.515 -0.22,-0.73 -0.15,-1.542 0.189,-2.232 1.232,-2.482 6.47,-3.381 8.043,-3.597 l 0.69,-0.093 0.337,0.598 c 0.558,0.988 3.27,6.037 2.008,8.581"
         style="fill:#ffffff;fill-opacity:1;fill-rule:nonzero;stroke:none"
         id="path6178"
         inkscape:connector-curvature="0" />
    </g>
    <g
       id="g6180"
       transform="matrix(15.765182,0,0,-15.765182,874.47832,406.98299)">
      <path
         d="m 0,0 0.012,-0.212 0.14,0.009 0.128,0.03 L 0.315,-0.09 0.272,-0.01 0.132,0.005 0,0 Z M 0.036,-0.608 -0.076,-0.612 -0.118,0.087 0.124,0.102 0.31,0.09 0.398,0.029 0.433,-0.072 0.386,-0.208 0.246,-0.279 0.324,-0.329 0.422,-0.448 0.511,-0.579 0.373,-0.586 0.307,-0.482 0.192,-0.334 0.086,-0.306 0.018,-0.309 0.036,-0.608 Z m 0.096,0.904 c -0.149,-0.012 -0.275,-0.068 -0.375,-0.18 -0.102,-0.114 -0.148,-0.244 -0.14,-0.395 0.012,-0.15 0.075,-0.277 0.185,-0.374 0.111,-0.101 0.24,-0.146 0.393,-0.138 0.148,0.008 0.272,0.068 0.374,0.18 0.099,0.111 0.145,0.245 0.138,0.394 C 0.697,-0.069 0.635,0.058 0.524,0.158 0.41,0.257 0.283,0.304 0.132,0.296 M 0.124,0.404 C 0.243,0.412 0.351,0.387 0.456,0.334 0.559,0.281 0.646,0.205 0.71,0.109 0.772,0.013 0.808,-0.094 0.817,-0.21 0.823,-0.327 0.799,-0.439 0.746,-0.543 0.694,-0.646 0.618,-0.728 0.522,-0.793 0.424,-0.856 0.318,-0.891 0.2,-0.898 c -0.118,-0.007 -0.228,0.014 -0.331,0.069 -0.109,0.05 -0.189,0.126 -0.252,0.221 -0.064,0.098 -0.097,0.205 -0.108,0.323 -0.004,0.115 0.017,0.227 0.069,0.331 0.054,0.105 0.13,0.187 0.228,0.252 0.099,0.064 0.201,0.099 0.318,0.106"
         style="fill:#351858;fill-opacity:1;fill-rule:nonzero;stroke:none"
         id="path6182"
         inkscape:connector-curvature="0" />
    </g>
    <g
       id="g6184"
       transform="matrix(15.765182,0,0,-15.765182,413.1891,463.02759)">
      <path
         d="m 0,0 c -0.16,-0.011 -0.279,-0.159 -0.256,-0.319 l 0.224,-2.008 c 0.017,-0.162 0.168,-0.283 0.324,-0.274 l 0.927,0.081 c 0.163,0.015 0.275,0.156 0.247,0.315 l -0.317,2.034 c -0.03,0.16 -0.181,0.282 -0.34,0.265"
         style="fill:#ffffff;fill-opacity:1;fill-rule:nonzero;stroke:none"
         id="path6186"
         inkscape:connector-curvature="0" />
    </g>
    <g
       id="g6188"
       transform="matrix(15.765182,0,0,-15.765182,515.66278,452.2606)">
      <path
         d="m 0,0 c 0.015,-0.165 0.153,-0.282 0.311,-0.265 l 0.476,0.05 c 0.16,0.015 0.308,-0.106 0.325,-0.268 l 0.147,-2.088 c 0.022,-0.162 0.163,-0.29 0.327,-0.284 l 0.437,0.01 c 0.161,0.01 0.289,0.147 0.279,0.31 l -0.064,2.161 c -0.008,0.163 0.118,0.312 0.278,0.324 l 0.427,0.043 c 0.161,0.015 0.29,0.162 0.285,0.322 L 3.167,1.044 C 3.164,1.207 3.022,1.327 2.865,1.314 L 0.174,1.059 C 0.013,1.044 -0.11,0.898 -0.099,0.737"
         style="fill:#ffffff;fill-opacity:1;fill-rule:nonzero;stroke:none"
         id="path6190"
         inkscape:connector-curvature="0" />
    </g>
    <g
       id="g6192"
       transform="matrix(15.765182,0,0,-15.765182,449.18101,457.5577)">
      <path
         d="m 0,0 c 0.015,-0.167 0.149,-0.282 0.315,-0.266 l 0.474,0.051 C 0.947,-0.203 1.092,-0.32 1.11,-0.484 l 0.149,-2.09 c 0.017,-0.16 0.165,-0.287 0.325,-0.281 l 0.437,0.011 c 0.163,0.008 0.287,0.145 0.28,0.31 l -0.064,2.159 c -0.008,0.164 0.114,0.312 0.277,0.324 l 0.428,0.043 C 3.103,0.008 3.231,0.15 3.224,0.316 L 3.166,1.044 C 3.161,1.205 3.023,1.326 2.863,1.311 L 0.171,1.059 C 0.01,1.044 -0.113,0.899 -0.101,0.735"
         style="fill:#ffffff;fill-opacity:1;fill-rule:nonzero;stroke:none"
         id="path6194"
         inkscape:connector-curvature="0" />
    </g>
    <g
       id="g6196"
       transform="matrix(15.765182,0,0,-15.765182,601.67761,429.48054)">
      <path
         d="M 0,0 C -0.016,0.162 -0.186,0.283 -0.349,0.264 L -1.138,0.221 C -1.302,0.209 -1.426,0.063 -1.417,-0.099 l 0.22,-3.476 c 0.009,-0.164 0.147,-0.289 0.309,-0.276 l 2.201,0.147 c 0.161,0.013 0.289,0.152 0.287,0.316 L 1.579,-3.226 C 1.576,-3.064 1.433,-2.939 1.276,-2.949 L 0.565,-2.98 C 0.403,-2.99 0.257,-2.867 0.241,-2.703"
         style="fill:#ffffff;fill-opacity:1;fill-rule:nonzero;stroke:none"
         id="path6198"
         inkscape:connector-curvature="0" />
    </g>
    <g
       id="g6200"
       transform="matrix(15.765182,0,0,-15.765182,427.45659,438.95478)">
      <path
         d="m 0,0 c -0.008,-0.38 -0.321,-0.687 -0.703,-0.682 -0.379,0.011 -0.687,0.326 -0.681,0.707 0.009,0.38 0.324,0.687 0.704,0.679 C -0.299,0.697 0.008,0.383 0,0"
         style="fill:#ffffff;fill-opacity:1;fill-rule:nonzero;stroke:none"
         id="path6202"
         inkscape:connector-curvature="0" />
    </g>
    <g
       id="g6204"
       transform="matrix(15.765182,0,0,-15.765182,663.68207,470.02733)">
      <path
         d="m 0,0 c -0.019,0.159 -0.064,0.459 0.191,0.484 l 0.421,0.047 c 0.321,0.005 0.281,0.156 0.281,0.296 0,0.182 -0.006,0.261 -0.306,0.221 L 0.294,1.026 C -0.169,0.991 -0.074,1.277 -0.089,1.439 l -0.008,0.137 c 0.014,0.192 0.091,0.293 0.531,0.293 L 0.815,1.89 C 1.049,1.909 1.064,2.073 1.051,2.238 L 1.019,2.762 C 1.007,2.922 0.86,3.051 0.702,3.045 L -1.373,2.95 C -1.535,2.944 -1.66,2.803 -1.652,2.641 l 0.198,-3.524 c 0.011,-0.163 0.147,-0.281 0.312,-0.263 l 2.093,0.236 c 0.163,0.015 0.237,0.055 0.231,0.222 -0.011,0.196 -0.044,0.451 -0.259,0.439 L 0.621,-0.285 C 0.317,-0.307 0.042,-0.408 0.015,-0.077"
         style="fill:#ffffff;fill-opacity:1;fill-rule:nonzero;stroke:none"
         id="path6206"
         inkscape:connector-curvature="0" />
    </g>
    <g
       id="g6208"
       transform="matrix(15.765182,0,0,-15.765182,371.37983,446.71125)">
      <path
         d="M 0,0 C -0.015,0.161 -0.184,0.284 -0.345,0.268 L -1.137,0.223 C -1.306,0.211 -1.426,0.064 -1.416,-0.101 l 0.22,-3.472 c 0.009,-0.163 0.148,-0.289 0.311,-0.277 l 2.202,0.148 c 0.16,0.012 0.29,0.153 0.282,0.317 l -0.017,0.16 C 1.573,-3.063 1.434,-2.939 1.274,-2.946 L 0.566,-2.978 C 0.401,-2.989 0.259,-2.864 0.241,-2.699"
         style="fill:#ffffff;fill-opacity:1;fill-rule:nonzero;stroke:none"
         id="path6210"
         inkscape:connector-curvature="0" />
    </g>
  </g>
</svg>
